<?xml version="1.0" standalone="no"?><!DOCTYPE svg PUBLIC "-//W3C//DTD SVG 1.1//EN" "http://www.w3.org/Graphics/SVG/1.1/DTD/svg11.dtd"><svg t="1545640913901" class="icon" style="" viewBox="0 0 1500 1024" version="1.1" xmlns="http://www.w3.org/2000/svg" p-id="3376" xmlns:xlink="http://www.w3.org/1999/xlink" width="292.96875" height="200"><defs><style type="text/css"></style></defs><path d="M200 653.7h1100v56.6H200z" fill="#FFFFFF" p-id="3377"></path><path d="M200 597.1h1100v56.6H200z" fill="#BF0A30" p-id="3378"></path><path d="M200 766.7h1100v56.6H200z" fill="#FFFFFF" p-id="3379"></path><path d="M200 823.3h1100v56.6H200v-56.6z m0-113.2h1100v56.6H200v-56.6z m0 0" fill="#BF0A30" p-id="3380"></path><path d="M200 540.5h1100v56.6H200z" fill="#FFFFFF" p-id="3381"></path><path d="M200 370.9h1100v56.6H200zM200 257.8h1100v56.6H200v-56.6z m0 226.1h1100v56.6H200v-56.6z m0-339h1100v56.5H200v-56.5z m0 0" fill="#BF0A30" p-id="3382"></path><path d="M200 314.3h1100v56.6H200v-56.6z m0 113.1h1100V484H200v-56.6z m0 0" fill="#FFFFFF" p-id="3383"></path><path d="M200 144.9h440v396.3H200z" fill="#002868" p-id="3384"></path><path d="M530.5 166l3 9.4h9.9l-7.9 5.8 3 9.4-7.9-5.9-8 5.9 3.1-9.4-7.9-5.8h9.8l2.9-9.4z m0 82.2l3 9.4h9.9l-7.9 5.8 3 9.4-7.9-5.8-8 5.8 3.1-9.4-7.9-5.8h9.8l2.9-9.4z m0 82.4l3 9.4h9.9l-7.9 5.8 3 9.4-7.9-5.8-8 5.8 3.1-9.4-7.9-5.8h9.8l2.9-9.4z m0 84.3l3 9.4h9.9l-7.9 5.7 3 9.5-7.9-5.8-8 5.8 3.1-9.5-7.9-5.7h9.8l2.9-9.4z m0 80.4l3 9.3h9.9l-7.9 5.9 3 9.3-7.9-5.8-8 5.8 3.1-9.3-7.9-5.9h9.8l2.9-9.3zM456.8 166l3.1 9.4h9.8l-7.9 5.8 3 9.4-7.9-5.9-7.9 5.9 3-9.4-7.9-5.8h9.9l2.8-9.4z m0 82.2l3.1 9.4h9.8l-7.9 5.8 3 9.4-7.9-5.8-7.9 5.8 3-9.4-7.9-5.8h9.9l2.8-9.4z m0 82.4l3.1 9.4h9.8l-7.9 5.8 3 9.4-7.9-5.8-7.9 5.8 3-9.4-8-5.8h9.9l2.9-9.4z m0 84.3l3.1 9.4h9.8l-7.9 5.7 3 9.5-7.9-5.8-7.9 5.8 3-9.5-7.9-5.7h9.9l2.8-9.4z m0 80.4l3.1 9.3h9.8l-7.9 5.9 3 9.3-7.9-5.8-7.9 5.8 3-9.3-7.9-5.9h9.9l2.8-9.3zM383.3 166l3 9.4h9.8l-7.9 5.8 3.1 9.4-7.9-5.9-8 5.9 3.1-9.4-8-5.8h9.9l2.9-9.4z m0 82.2l3 9.4h9.8l-7.9 5.8 3.1 9.4-7.9-5.8-8 5.8 3.1-9.4-8-5.8h9.9l2.9-9.4z m0 82.4l3 9.4h9.8l-7.9 5.8 3.1 9.4-7.9-5.8-8 5.8 3.1-9.4-8-5.8h9.9l2.9-9.4z m0 84.3l3 9.4h9.8l-7.9 5.7 3.1 9.5-7.9-5.8-8 5.8 3.1-9.5-8-5.7h9.9l2.9-9.4z m0 80.4l3 9.3h9.8l-7.9 5.9 3.1 9.3-7.9-5.8-8 5.8 3.1-9.3-8-5.9h9.9l2.9-9.3zM309.5 166l3.1 9.4h9.9l-8 5.8 3.1 9.4-8-5.9-7.9 5.9 3.1-9.4-8-5.8h9.9l2.8-9.4z m0 82.2l3.1 9.4h9.9l-8 5.8 3.1 9.4-8-5.8-7.9 5.8 3.1-9.4-8-5.8h9.9l2.8-9.4z m0 82.4l3.1 9.4h9.9l-8 5.8 3.1 9.4-8-5.8-7.9 5.8 3.1-9.4-8-5.8h9.9l2.8-9.4z m0 84.3l3.1 9.4h9.9l-8 5.7 3.1 9.5-8-5.8-7.9 5.8 3.1-9.5-8-5.7h9.9l2.8-9.4z m0 80.4l3.1 9.3h9.9l-8 5.9 3.1 9.3-8-5.8-7.9 5.8 3.1-9.3-8-5.9h9.9l2.8-9.3zM236 166l3 9.4h9.9l-8 5.8 3.1 9.4-7.9-5.9-8 5.9 3.1-9.4-8-5.8h9.9l2.9-9.4z m0 82.2l3 9.4h9.9l-8 5.8 3.1 9.4-8-5.8-8 5.8 3.1-9.4-8-5.8h9.9l3-9.4z m0 82.4l3 9.4h9.9l-8 5.8 3.1 9.4-7.9-5.8-8 5.8 3.1-9.4-8-5.8h9.9l2.9-9.4z m0 84.3l3 9.4h9.9l-8 5.7 3.1 9.5-7.9-5.8-8 5.8 3.1-9.5-8-5.7h9.9l2.9-9.4z m0 80.4l3 9.3h9.9l-8 5.9 3.1 9.3-8-5.8-8 5.8 3.1-9.3-8-5.9h9.9l3-9.3z m332.1-288.2l3 9.4h9.9l-7.9 5.8 3 9.4-7.9-5.8-8 5.8 3.1-9.4-7.9-5.8h9.8l2.9-9.4z m0 85l3 9.4h9.9l-7.9 5.8 3 9.4-7.9-5.8-8 5.8 3.1-9.4-7.9-5.8h9.8l2.9-9.4z m-0.8 83.3l3 9.4h9.9l-7.9 5.8 3 9.4-7.9-5.8-7.9 5.8 3-9.4-7.9-5.8h9.8l2.9-9.4z m-0.7 82.2l3.1 9.4h9.8l-7.9 5.8 3 9.4-7.9-5.8-7.9 5.8 3-9.4-7.9-5.8h9.8l2.9-9.4z m-72.2-250.5l3 9.4h9.9l-7.9 5.8 3 9.4-7.9-5.8-8 5.8 3.1-9.4-7.9-5.8h9.8l2.9-9.4z m0 85l3 9.4h9.9l-7.9 5.8 3 9.4-7.9-5.8-8 5.8 3.1-9.4-7.9-5.8h9.8l2.9-9.4z m-0.7 83.3l3.1 9.4h9.8l-7.9 5.8 3.1 9.4-8-5.8-7.9 5.8 3-9.4-7.9-5.8h9.8l2.9-9.4z m-0.8 82.2l3.1 9.4h9.8l-7.9 5.8 3.1 9.4-8-5.8-7.9 5.8 3-9.4-7.9-5.8h9.8l2.9-9.4z m-72.2-253.5l3.1 9.4h9.8l-7.9 5.8 3.1 9.4-8-5.8-7.9 5.8 3-9.4-7.9-5.8h9.8l2.9-9.4z m0 85l3.1 9.4h9.8l-7.9 5.8 3.1 9.4-8-5.8-7.9 5.8 3-9.4-7.9-5.8h9.8l2.9-9.4z m-0.7 83.3l3.1 9.4h9.8l-7.9 5.8 3.1 9.4-8-5.8-8 5.8 3.1-9.4-7.9-5.8h9.8l2.9-9.4z m-0.7 82.4l3.1 9.4h9.8l-7.9 5.7 3.1 9.5-8-5.8-7.9 5.8 3-9.5-7.9-5.7h9.8l2.9-9.4z m-72.2-251.4l3.1 9.4h9.9l-8 5.8 3.1 9.3-8-5.8-7.9 5.8 3.1-9.3-8-5.8h9.9l2.8-9.4z m0 84.9l3.1 9.4h9.9l-8 5.8 3.1 9.4-8-5.8-7.9 5.8 3.1-9.4-8-5.8h9.9l2.8-9.4z m-0.8 83.3l3.1 9.3h9.9l-8 5.8 3.1 9.4-8-5.8-7.9 5.8 3-9.4-7.9-5.8h9.9l2.8-9.3z m-0.7 82.3l3.1 9.4h9.9l-8 5.8 3.1 9.4-8-5.8-7.9 5.8 3.1-9.4-8-5.8h9.9l2.8-9.4z m-72.2-252.1l3.1 9.4h9.9l-8 5.8 3.1 9.4-8-5.8-7.9 5.8 3-9.4-7.9-5.8h9.9l2.8-9.4z m0 85l3.1 9.4h9.9l-8 5.8 3.1 9.4-8-5.8-7.9 5.8 3-9.4-7.9-5.8h9.9l2.8-9.4z m-0.7 83.4l3.1 9.4h9.9l-8 5.8 3.1 9.4-8-5.9-7.9 5.9 3-9.4-7.9-5.8h9.9l2.8-9.4z m-0.6 82.2l3 9.4h9.9l-8 5.8 3.1 9.4-7.9-5.8-8 5.8 3.1-9.4-8-5.8h9.9l2.9-9.4zM604.2 166l3 9.4h9.9l-7.9 5.8 3 9.4-7.9-5.9-8 5.9 3.1-9.4-7.9-5.8h9.8l2.9-9.4z m0 82.2l3 9.4h9.9l-7.9 5.8 3 9.4-7.9-5.8-8 5.8 3.1-9.4-7.9-5.8h9.8l2.9-9.4z m0 82.4l3 9.4h9.9l-7.9 5.8 3 9.4-7.9-5.8-8 5.8 3.1-9.4-7.9-5.8h9.8l2.9-9.4z m0 84.3l3 9.4h9.9l-7.9 5.7 3 9.5-7.9-5.8-8 5.8 3.1-9.5-7.9-5.7h9.8l2.9-9.4z m0 80.4l3 9.3h9.9l-7.9 5.9 3 9.3-7.9-5.8-8 5.8 3.1-9.3-7.9-5.9h9.8l2.9-9.3z m0 0" fill="#FFFFFF" p-id="3385"></path></svg>