<?xml version="1.0" encoding="UTF-8"?>
<svg width="167px" height="40px" viewBox="0 0 167 40" version="1.1" xmlns="http://www.w3.org/2000/svg" xmlns:xlink="http://www.w3.org/1999/xlink">
    <!-- Generator: Sketch 49 (51002) - http://www.bohemiancoding.com/sketch -->
    <title>Group 2</title>
    <desc>Created with Sketch.</desc>
    <defs></defs>
    <g id="Page-1" stroke="none" stroke-width="1" fill="none" fill-rule="evenodd">
        <g id="developer-FIBOS" transform="translate(-120.000000, -10.000000)">
            <g id="Group-2" transform="translate(120.000000, 10.000000)">
                <g id="单logo" fill="#221E1F" fill-rule="nonzero">
                    <g id="_编组_" opacity="0.8" transform="translate(6.296296, 1.250000)">
                        <polygon id="_路径_" points="16.6502058 25.1099576 20.6533909 28.6257415 20.9863951 28.3333686 21.0268313 28.296822 21.3289136 27.4002119 17.6801399 24.1987288"></polygon>
                        <polygon id="_路径_2" points="0.894353909 28.6208686 4.9046749 25.1099576 3.87236214 24.1987288 0.221209877 27.3929025 0.525670782 28.296822"></polygon>
                        <polygon id="_路径_3" points="10.7774403 19.9227754 13.6626831 22.4712924 14.6926173 21.5600636 11.4505844 18.6948093 11.4505844 0.713877119 10.7774403 0.119385593 10.1019177 0.713877119 10.1019177 18.6948093 6.85988477 21.5600636 7.89219753 22.4712924"></polygon>
                    </g>
                    <path d="M5.40085288,30.0880503 L17,40 L28.5991471,30.0880503 L34,14.5336927 L16.990334,0 L0,14.5336927 L5.40085288,30.0880503 Z M16.3040512,37.6160527 L6.57526652,29.2997904 L2.31016347,17.0110812 L16.3040512,28.9907158 L16.3040512,37.6160527 Z M27.4029851,29.2926026 L27.3619048,29.3285415 L17.6742004,37.6160527 L17.6742004,28.9907158 L31.6705046,17.0110812 L27.4029851,29.2926026 Z M32.1779673,14.7780773 L16.990334,27.7783768 L1.80028429,14.785265 L16.990334,1.79215334 L32.1779673,14.7780773 Z" id="_复合路径_"></path>
                </g>
                <text id="Developer" font-family="PingFangSC-Regular, PingFang SC" font-size="22" font-weight="normal" fill="#000000">
                    <tspan x="45.25" y="27">Developer</tspan>
                </text>
            </g>
        </g>
    </g>
</svg>