<?xml version="1.0" standalone="no"?><!DOCTYPE svg PUBLIC "-//W3C//DTD SVG 1.1//EN" "http://www.w3.org/Graphics/SVG/1.1/DTD/svg11.dtd"><svg t="1545640886153" class="icon" style="" viewBox="0 0 1024 1024" version="1.1" xmlns="http://www.w3.org/2000/svg" p-id="2763" xmlns:xlink="http://www.w3.org/1999/xlink" width="200" height="200"><defs><style type="text/css"></style></defs><path d="M0 160h1024v704H0V160z" fill="#DE2910" p-id="2764"></path><path d="M168.52992 247.51616l21.57056 66.59072h70.18496L203.6224 355.23584l21.57056 66.73408-56.66304-40.9856-56.66304 41.12896 21.57056-66.72896-56.66304-41.13408h70.18496l21.57056-66.73408z m182.65088-34.80576l-1.4336 23.00928 21.4272 8.48896-22.43584 5.75488-1.43872 23.0144-12.36992-19.56352-22.29248 5.75488 14.81216-17.6896-12.36992-19.56352L336.512 230.4l14.6688-17.6896z m78.67392 74.64448l-10.496 20.56704 16.39424 16.39424-22.72256-3.7376-10.64448 20.56704-3.59424-22.86592-22.72256-3.45088 20.56704-10.496-3.59936-22.7328 16.25088 16.39424 20.56704-10.63936z m-23.58784 93.62944l7.04512 22.00576h23.15264l-18.69312 13.5168 7.04512 22.00576-18.69824-13.66016-18.69312 13.52192 7.1936-21.86752-18.69824-13.5168h23.15264l7.1936-22.00576zM351.03744 451.30752l-1.4336 23.00928 21.43232 8.48384-22.29248 5.75488-1.43872 23.00928-12.36992-19.5584-22.43072 5.74976 14.6688-17.68448-12.36992-19.56352 21.57568 8.48896 14.65856-17.6896z" fill="#FFDE00" p-id="2765"></path></svg>